 http://www.imdb.com/title/tt2181989/



In the Travelling community, a young man must put his past behind him and settle a long running feud between two families so he can be with the love of his life. 



Director:
 Mark O'Connor 

Writer:
 Mark O'Connor 

Stars:
 Michael Collins, Thomas Collins, John Connors

Genres:
  Drama

Country:
 Ireland 

Language:
 English 




Format                                   : AVI
Format/Info                              : Audio Video Interleave
File size                                : 691 MiB
Duration                                 : 1h 16mn
Overall bit rate                         : 1 260 Kbps

Video
ID                                       : 0
Format                                   : MPEG-4 Visual
Format profile                           : Simple@L3
Format settings, BVOP                    : No
Format settings, QPel                    : No
Format settings, GMC                     : No warppoints
Format settings, Matrix                  : Default (H.263)
Codec ID                                 : XVID
Codec ID/Hint                            : XviD
Duration                                 : 1h 16mn
Source duration                          : 1h 16mn
Bit rate                                 : 1 119 Kbps
Width                                    : 640 pixels
Height                                   : 272 pixels
Display aspect ratio                     : 2.35:1
Frame rate                               : 25.000 fps
Color space                              : YUV
Chroma subsampling                       : 4:2:0
Bit depth                                : 8 bits
Scan type                                : Progressive
Compression mode                         : Lossy
Bits/(Pixel*Frame)                       : 0.257
Stream size                              : 613 MiB (89%)
Writing library                          : XviD 1.1.2 (UTC 2006-11-01)

Audio
ID                                       : 1
Format                                   : MPEG Audio
Format version                           : Version 1
Format profile                           : Layer 3
Mode                                     : Joint stereo
Mode extension                           : MS Stereo
Codec ID                                 : 55
Codec ID/Hint                            : MP3
Duration                                 : 1h 16mn
Bit rate mode                            : Constant
Bit rate                                 : 128 Kbps
Channel(s)                               : 2 channels
Sampling rate                            : 48.0 KHz
Compression mode                         : Lossy
Stream size                              : 70.1 MiB (10%)
Alignment                                : Split accross interleaves
Interleave, duration                     : 24 ms (0.60 video frame)



 
http://bayimg.com/daLckAAeF 
http://bayimg.com/DALclaAEf 
http://bayimg.com/dAlCMaAEF
